<mxfile host="65bd71144e">
    <diagram name="Page-1" id="03018318-947c-dd8e-b7a3-06fadd420f32">
        <mxGraphModel dx="1074" dy="500" grid="1" gridSize="10" guides="1" tooltips="1" connect="1" arrows="1" fold="1" page="1" pageScale="1" pageWidth="1100" pageHeight="850" background="none" math="0" shadow="0">
            <root>
                <mxCell id="0"/>
                <mxCell id="1" parent="0"/>
                <mxCell id="MHUwPR6OBT8zw4PGs1xF-27" value="" style="strokeWidth=1;shadow=0;dashed=0;align=center;html=1;shape=mxgraph.mockup.containers.browserWindow;rSize=0;strokeColor=#666666;strokeColor2=#008cff;strokeColor3=#c4c4c4;mainText=,;recursiveResize=0;" parent="1" vertex="1">
                    <mxGeometry x="210" y="60" width="550" height="380" as="geometry"/>
                </mxCell>
                <mxCell id="MHUwPR6OBT8zw4PGs1xF-28" value="Pixl Demo" style="strokeWidth=1;shadow=0;dashed=0;align=center;html=1;shape=mxgraph.mockup.containers.anchor;fontSize=17;fontColor=#666666;align=left;" parent="MHUwPR6OBT8zw4PGs1xF-27" vertex="1">
                    <mxGeometry x="60" y="12" width="110" height="26" as="geometry"/>
                </mxCell>
                <mxCell id="MHUwPR6OBT8zw4PGs1xF-29" value="" style="strokeWidth=1;shadow=0;dashed=0;align=center;html=1;shape=mxgraph.mockup.containers.anchor;rSize=0;fontSize=17;fontColor=#666666;align=left;" parent="MHUwPR6OBT8zw4PGs1xF-27" vertex="1">
                    <mxGeometry x="130" y="60" width="250" height="26" as="geometry"/>
                </mxCell>
                <mxCell id="MHUwPR6OBT8zw4PGs1xF-30" value="Connect" style="strokeWidth=1;shadow=0;dashed=0;align=center;html=1;shape=mxgraph.mockup.buttons.button;strokeColor=#666666;fontColor=#ffffff;mainText=;buttonStyle=round;fontSize=17;fontStyle=1;fillColor=#008cff;whiteSpace=wrap;" parent="MHUwPR6OBT8zw4PGs1xF-27" vertex="1">
                    <mxGeometry x="154" y="192.5" width="75" height="30" as="geometry"/>
                </mxCell>
                <mxCell id="MHUwPR6OBT8zw4PGs1xF-31" value="Upload" style="strokeWidth=1;shadow=0;dashed=0;align=center;html=1;shape=mxgraph.mockup.buttons.button;strokeColor=#666666;fontColor=#ffffff;mainText=;buttonStyle=round;fontSize=17;fontStyle=1;fillColor=#008cff;whiteSpace=wrap;" parent="MHUwPR6OBT8zw4PGs1xF-27" vertex="1">
                    <mxGeometry x="244" y="192.5" width="75" height="30" as="geometry"/>
                </mxCell>
                <mxCell id="MHUwPR6OBT8zw4PGs1xF-32" value="Write to Flash" style="strokeWidth=1;shadow=0;dashed=0;align=center;html=1;shape=mxgraph.mockup.forms.rrect;rSize=0;fillColor=#eeeeee;strokeColor=#999999;gradientColor=#cccccc;align=left;spacingLeft=4;fontSize=17;fontColor=#666666;labelPosition=right;" parent="MHUwPR6OBT8zw4PGs1xF-27" vertex="1">
                    <mxGeometry x="341" y="200" width="15" height="15" as="geometry"/>
                </mxCell>
                <mxCell id="MHUwPR6OBT8zw4PGs1xF-40" value="" style="ellipse;whiteSpace=wrap;html=1;aspect=fixed;fillColor=#d5e8d4;strokeColor=#82b366;" parent="MHUwPR6OBT8zw4PGs1xF-27" vertex="1">
                    <mxGeometry x="261.5" y="270" width="40" height="40" as="geometry"/>
                </mxCell>
                <mxCell id="MHUwPR6OBT8zw4PGs1xF-41" value="Press the green button to jump" style="text;html=1;strokeColor=none;fillColor=none;align=center;verticalAlign=middle;whiteSpace=wrap;rounded=0;" parent="MHUwPR6OBT8zw4PGs1xF-27" vertex="1">
                    <mxGeometry x="39" y="270" width="190" height="40" as="geometry"/>
                </mxCell>
                <mxCell id="MHUwPR6OBT8zw4PGs1xF-42" value="Restart Game" style="strokeWidth=1;shadow=0;dashed=0;align=center;html=1;shape=mxgraph.mockup.buttons.button;strokeColor=#666666;fontColor=#ffffff;mainText=;buttonStyle=round;fontSize=17;fontStyle=1;fillColor=#008cff;whiteSpace=wrap;" parent="MHUwPR6OBT8zw4PGs1xF-27" vertex="1">
                    <mxGeometry x="340" y="275" width="120" height="30" as="geometry"/>
                </mxCell>
            </root>
        </mxGraphModel>
    </diagram>
</mxfile>